<svg width="1054" height="615" fill="none" xmlns="http://www.w3.org/2000/svg"><path d="M63.213 0h144.29c35.02 0 63.213 28.193 63.213 63.213V551.05c0 35.02-28.193 63.213-63.213 63.213H63.213C28.193 614.264 0 586.071 0 551.051V63.213C0 28.193 28.193 0 63.213 0Z" fill="#fff"/><path d="m171.664 112.596.201 2.078c4.353 2.572 6.629 4.65 11.08 7.519 11.675 7.421 26.024 20.58 24.242 65.797 3.363 9.894 4.848 29.187 7.816 35.322 6.037 12.17 10.191 20.085 11.972 31.463 0 0 1.783 17.81 4.057 19.096 12.07 2.771 8.609 3.958 10.29 6.135 1.878 2.374 8.903 2.275 8.903 8.805 2.475 3.265 4.355 6.531 5.64 10.092V63.719c0-26.913-21.767-48.68-48.582-48.68h-46.405c7.421 2.672 11.675 5.838 14.15 10.785 5.934.495 12.963 13.852 1.978 33.739 4.846 3.364 1.087 8.311-2.376 13.95-1.089 1.782-2.177 5.047-5.442 4.849-4.354 9.004-9.401 17.513-13.257 18.007-1.087 1.386-1.881 5.244-.199 7.025 5.644 2.573 12.468 5.937 15.932 9.202ZM215.001 598.597l-.494.099c21.271-12.962 8.112-37.498 4.057-51.943l.79-2.477c1.088-1.978-1.186-6.627-1.186-6.627-2.67-2.177-3.265-14.247-4.651-19.787-2.273-9.004 4.056-24.736 4.056-30.079 0-5.345-4.056-12.666-11.377-21.965-1.782-2.078-7.125-47.69-11.874-59.266-6.629-15.931-8.61-13.36-16.522-32.453-6.037-13.358-1.288-33.046-14.94-78.758l3.066-2.869s-10.884-39.775-14.447-50.658c-3.465-10.884-9.893-11.576-9.893-11.576l.394-5.64c.496-1.682 13.258-34.828 14.347-35.916.097-.693 18.403-13.258 18.698-11.378 1.483 8.113 8.608 49.372 11.674 55.902 3.067 6.629 13.657 26.813 18.504 39.379-18.898 4.65-33.048 21.767-33.048 42.051 0 23.944 19.394 43.435 43.338 43.435 18.301 0 34.135-11.377 40.465-27.406l-.098 219.949c.004 24.337-17.509 44.421-40.859 47.983Z" fill="#C80F2E"/><path d="M145.641 15.04c-15.831 6.134-18.007 12.96-18.6 34.926-2.671.297-8.213-2.276-6.332 11.081 0 0 .989 8.905 4.551 7.42-2.77 19.393-.569 24.247-13.454 25.627-2.771.297-6.136.494-10.29.692l-1.287 1.781c-17.611 1.682-26.335.557-37.698 15.534-4.353 5.739-9.003 13.852-14.742 25.428 0 0-5.244 12.962-6.828 18.304-5.047 10.587-17.414 34.036-21.075 49.076-1.186 5.145-3.463 6.728-.198 14.148 4.848 10.686-3.166 13.456 24.34 12.665v6.332s-7.322 6.332-8.905 10.092c-1.484 3.859-5.739 22.757-5.54 31.761.494 23.449 19.591 43.038 25.23 66.39l12.763 1.782c6.926 15.929 37.202 58.868 44.228 65.795l.297.298c1.582 4.055 9.4 9.103 13.95 14.149 2.771 2.671 15.536 16.523 32.553 29.684 6.247 4.83 12.964 9.596 19.986 13.654-.198-.101 4.156 8.608 6.332 15.73-8.707 7.024 8.213 19.889 13.357 41.161.297 2.867-4.948 5.739 2.87 12.762-.495 32.154-10.289 48.978 6.134 57.88H62.531c-26.317-.594-47.59-22.162-47.59-48.581V63.719c0-26.616 21.272-48.086 47.59-48.68h83.11Z" fill="#1D4289"/><path fill-rule="evenodd" clip-rule="evenodd" d="M343.531 14.755v583.752h63.092c.165-150.332 3.573-301.269-5.677-449.842l72.737 449.842h90.527V14.755h-62.472c-1.273 154.777 4.223 307.391 14.718 458.408L440.875 14.755h-97.344ZM890.459 14.352l-62.012 584.242h77.154l10.095-118.139h50.475l10.095 118.139h76.794L992.85 14.352H890.459Zm50.474 164.91 19.469 232.648h-38.937l19.468-232.648Z" fill="#fff"/><path d="M612.849 14.755V598.19h112.847c18.497 0 81.48-16.165 81.48-97.173V384.493c0-12.278.104-50.768-33.53-73.383 21.016 0 33.53-40.772 33.53-77.819V108.298c0-48.701-30.313-93.676-91.215-93.543H612.849Zm69.583 74.592h34.25c15.69 0 20.911 17.322 20.911 30.644v135.88c0 23.242-7.641 24.998-23.434 24.998h-31.727V89.347Zm0 255.228h34.25c15.69 0 20.911 17.322 20.911 30.644v121.364c0 15.813-7.883 27.821-23.434 27.821l-31.727.403V344.575Z" fill="#fff"/></svg>
